<?xml version="1.0" encoding="UTF-8"?>
<svg width="14px" height="15px" viewBox="0 0 14 15" version="1.1" xmlns="http://www.w3.org/2000/svg" xmlns:xlink="http://www.w3.org/1999/xlink">
    <!-- Generator: Sketch 52.6 (67491) - http://www.bohemiancoding.com/sketch -->
    <title>提醒铃铛icon@2x</title>
    <desc>Created with Sketch.</desc>
    <g id="提醒铃铛icon" stroke="none" stroke-width="1" fill="none" fill-rule="evenodd">
        <g id="提醒" transform="translate(0.500000, 0.500000)" fill="#484848" fill-rule="nonzero">
            <path d="M6.5,1.75 C6.34335523,1.75007433 6.19310462,1.68859087 6.08234003,1.57909102 C5.97157544,1.46959116 5.90938184,1.32105616 5.90945702,1.1662 L5.90945702,0.5838 C5.90945702,0.2611 6.17364357,0 6.5,0 C6.82635643,0 7.09054298,0.2611 7.09054298,0.5838 L7.09054298,1.1676 C7.09054298,1.4889 6.82635643,1.75 6.5,1.75 Z M6.5,14 C5.64534128,14 4.80859711,13.85643 4.01200136,13.57482 C3.70497566,13.46681 3.54593974,13.13186 3.65519728,12.82834 C3.76587098,12.52482 4.10192817,12.3662 4.41029923,12.47561 C5.771168,12.95826 7.30346417,12.94867 8.6573937,12.45097 C8.9629007,12.3387827 9.30260767,12.4923059 9.41667336,12.79411 C9.53015641,13.0961286 9.37485998,13.4319567 9.06957004,13.54472 C8.24670434,13.84691 7.38369021,14 6.5,14 Z" id="形状"></path>
            <path d="M11.1053147,11.9588 L1.89468528,11.9588 C0.854649872,11.9588 0.00827574468,11.12209 0.00827574468,10.09393 L0.00827574468,10.03107 C0.00827574468,9.25043 0.488145021,8.58186 1.18794553,8.30704 L1.18794553,5.8338 C1.18794553,2.93944 3.57079353,0.5838 6.49858383,0.5838 C9.42637413,0.5838 11.8092221,2.93944 11.8092221,5.8338 L11.8092221,8.30704 C12.5090226,8.58186 12.9888919,9.25043 12.9888919,10.03107 L12.9888919,10.09393 C12.9903081,11.12209 12.1453501,11.9588 11.1053147,11.9588 Z M6.5,1.75 C4.22223183,1.75 2.36903149,3.58204 2.36903149,5.8338 L2.36903149,9.29551 L1.83102843,9.34339 C1.46452357,9.37622 1.18794553,9.67155 1.18794553,10.03107 L1.18794553,10.09393 C1.18794553,10.47809 1.504672,10.7912 1.89326911,10.7912 L11.1039694,10.7912 C11.4925665,10.7912 11.8092929,10.47809 11.8092929,10.09393 L11.8092929,10.03107 C11.8092929,9.67148 11.5327149,9.37482 11.16621,9.34339 L10.628207,9.29551 L10.628207,5.8338 C10.6309685,3.58204 8.77776817,1.75 6.5,1.75 Z" id="形状"></path>
        </g>
    </g>
</svg>