<?xml version="1.0" encoding="UTF-8"?>
<svg width="60px" height="61px" viewBox="0 0 60 61" version="1.1" xmlns="http://www.w3.org/2000/svg" xmlns:xlink="http://www.w3.org/1999/xlink">
    <!-- Generator: Sketch 52.6 (67491) - http://www.bohemiancoding.com/sketch -->
    <title>成功已解决@2x</title>
    <desc>Created with Sketch.</desc>
    <g id="成功已解决" stroke="none" stroke-width="1" fill="none" fill-rule="evenodd">
        <g transform="translate(0.000000, 0.066593)" fill="#34E153">
            <path d="M30.0039294,0.0150275028 C13.4690276,0.0150275028 0.0646931188,13.4201116 0.0646931188,29.9567851 C0.0646931188,46.4914825 13.4690275,59.8964985 30.0039294,59.8964985 C46.5374002,59.8964985 59.9462322,46.4914144 59.9462322,29.9567851 C59.9462322,13.4201116 46.5374002,0.0150275028 30.0039294,0.0150275028 Z M30.0119024,57.1147638 C15.0169344,57.1147638 2.86182852,44.9591127 2.86182852,29.9644855 C2.86182852,14.9698582 15.0170025,2.81386648 30.0119024,2.81386648 C45.006257,2.81386648 57.1614311,14.9697901 57.1614311,29.9644173 C57.1614311,44.9590446 45.0063252,57.1147638 30.0119024,57.1147638 Z" id="形状" fill-rule="nonzero"></path>
            <path d="M29.4558591,39.4132859 C29.4488843,39.4206083 29.4418397,39.4278897 29.4347252,39.4351294 C29.4276146,39.4423635 29.420461,39.4495286 29.4132655,39.4566245 L29.3871793,39.483167 C29.0465222,39.8298406 28.5934861,40.0016154 28.1349315,39.9997119 C27.6780021,40.0078532 27.2241537,39.8434988 26.8791756,39.5038017 L18.5159382,31.2667015 C17.8177008,30.5788779 17.8296835,29.4331839 18.5427068,28.7076126 C19.2561148,27.9819862 20.4004039,27.9511717 21.0982564,28.6389953 L28.1009722,35.5360929 L41.8791028,21.5163894 C42.5665117,20.8173956 43.7108009,20.8296113 44.435477,21.5434071 C45.1604279,22.2572029 45.1912641,23.4025117 44.5041849,24.1017257 L29.4558591,39.4132859 Z" id="合并形状"></path>
        </g>
    </g>
</svg>