<?xml version="1.0" encoding="UTF-8"?>
<svg width="45px" height="44px" viewBox="0 0 45 44" version="1.1" xmlns="http://www.w3.org/2000/svg" xmlns:xlink="http://www.w3.org/1999/xlink">
    <!-- Generator: Sketch 52.6 (67491) - http://www.bohemiancoding.com/sketch -->
    <title>分享微信@2x</title>
    <desc>Created with Sketch.</desc>
    <g id="Page-1" stroke="none" stroke-width="1" fill="none" fill-rule="evenodd">
        <g id="分享" transform="translate(-132.000000, -650.000000)">
            <g id="Group-9" transform="translate(0.000000, 621.000000)">
                <g id="Group-8" transform="translate(25.000000, 29.000000)">
                    <g id="Group-7" transform="translate(100.500000, 0.000000)">
                        <g id="分享微信" transform="translate(7.000000, 0.000000)">
                            <circle id="Oval-2" fill="#06D6A0" cx="22" cy="22" r="22"></circle>
                            <path d="M28.347397,17.3936939 C28.6912394,17.3936939 29.0315061,17.4183121 29.3688667,17.4560758 C28.4508455,13.1815212 23.8809697,10.0055515 18.6643212,10.0055515 C12.8320667,10.0055515 8.05496061,13.9801 8.05496061,19.0278 C8.05496061,21.9424909 9.64431212,24.3339909 12.3003182,26.1902455 L11.2392061,29.3815364 L14.9480545,27.5220091 C16.2750879,27.7842545 17.3399545,28.0547394 18.6642636,28.0547394 C18.997203,28.0547394 19.3272061,28.0381152 19.6547242,28.0124636 C19.4475242,27.3036121 19.3272364,26.5608121 19.3272364,25.7894242 C19.3272939,21.1546 23.3075758,17.3936939 28.347397,17.3936939 L28.347397,17.3936939 Z M22.5681091,14.3017909 C23.4739879,14.3017909 24.2083061,15.0361424 24.2083061,15.9420424 C24.2083061,16.8479424 23.4739848,17.5822636 22.5681091,17.5822636 C21.6621697,17.5822636 20.9278515,16.8479121 20.9278515,15.9420424 C20.9278515,15.0361727 21.6622303,14.3017909 22.5681091,14.3017909 L22.5681091,14.3017909 Z M15.1451091,17.6153333 C14.2392303,17.6153333 13.5048515,16.8809818 13.5048515,15.9751121 C13.5048515,15.0692424 14.2392333,14.3348909 15.1451091,14.3348909 C16.0510485,14.3348909 16.785397,15.0692424 16.785397,15.9751121 C16.785397,16.8809515 16.0510485,17.6153333 15.1451091,17.6153333 L15.1451091,17.6153333 Z M37.9556091,25.6964909 C37.9556091,21.4549424 33.7113121,17.9974697 28.9441364,17.9974697 C23.8961697,17.9974697 19.9205515,21.4549424 19.9205515,25.6964909 C19.9205515,29.9453667 23.8961697,33.3953 28.9441364,33.3953 C30.0005242,33.3953 31.0663,33.1286333 32.1274121,32.8626606 L35.0375879,34.4565788 L34.2394909,31.8052848 C36.3691364,30.2076727 37.9556091,28.0891697 37.9556091,25.6964909 L37.9556091,25.6964909 Z M26.171903,24.5074485 C25.5268,24.5074485 25.0038909,23.9844394 25.0038909,23.3393909 C25.0038909,22.6942818 25.5268303,22.1713939 26.171903,22.1713939 C26.8169758,22.1713939 27.3399152,22.6943121 27.3399152,23.3393909 C27.3399788,23.9844697 26.8169788,24.5074485 26.171903,24.5074485 L26.171903,24.5074485 Z M32.0042182,24.5737061 C31.3590545,24.5737061 30.8361758,24.0507273 30.8361758,23.4057091 C30.8361758,22.7605697 31.3590848,22.2377121 32.0042182,22.2377121 C32.6492909,22.2377121 33.1722303,22.7606 33.1722303,23.4057091 C33.1722636,24.0507273 32.6492939,24.5737061 32.0042182,24.5737061 L32.0042182,24.5737061 Z" id="Shape" fill="#FFFFFF"></path>
                        </g>
                    </g>
                </g>
            </g>
        </g>
    </g>
</svg>