<?xml version="1.0" encoding="UTF-8"?>
<svg width="22px" height="22px" viewBox="0 0 22 22" version="1.1" xmlns="http://www.w3.org/2000/svg" xmlns:xlink="http://www.w3.org/1999/xlink">
    <!-- Generator: Sketch 52.6 (67491) - http://www.bohemiancoding.com/sketch -->
    <title>支付宝icon@2x</title>
    <desc>Created with Sketch.</desc>
    <g id="支付宝icon" stroke="none" stroke-width="1" fill="none" fill-rule="evenodd">
        <g id="支付宝" transform="translate(2.000000, 2.000000)" fill="#00A8F1" fill-rule="nonzero">
            <path d="M17.9973341,12.3220877 L17.9973341,3.46288863 C17.9973341,1.55245735 16.4481398,0.00264454976 14.53709,0.00264454976 L3.46288863,0.00264454976 C1.55245735,0.00264454976 0.00264454976,1.55183886 0.00264454976,3.46288863 L0.00264454976,14.53709 C0.00264454976,16.4475213 1.55183886,17.9973341 3.46288863,17.9973341 L14.53709,17.9973341 C16.2396896,17.9973341 17.6558246,16.7668934 17.943846,15.1464668 C17.0265711,14.7518531 13.0484431,13.0344526 10.9771848,12.0437488 C9.40092654,13.9533483 7.74951185,15.0991422 5.26030806,15.0991422 C2.77110427,15.0991422 1.11002844,13.5679052 1.3102891,11.6904242 C1.44172749,10.4581493 2.28663981,8.44632938 5.95477962,8.79236019 C7.88809479,8.97474882 8.77340047,9.33538863 10.3516209,9.85491469 C10.7571754,9.10750948 11.0976185,8.28432938 11.3531801,7.40815166 L4.36301659,7.40815166 L4.36301659,6.71604739 L7.82104265,6.71604739 L7.82104265,5.47027251 L3.60215403,5.47027251 L3.60215403,4.70896209 L7.82104265,4.70896209 L7.82104265,2.91427251 C7.82104265,2.91427251 7.86079621,2.63264929 8.16950474,2.63264929 L9.8997654,2.63264929 L9.8997654,4.70896209 L14.3984218,4.70896209 L14.3984218,5.47027251 L9.89974408,5.47027251 L9.89974408,6.71604739 L13.5678839,6.71604739 C13.2315782,8.09029621 12.7208175,9.35093602 12.0794076,10.4542038 C13.1463981,10.8391137 17.9973341,12.3220877 17.9973341,12.3220877 Z M4.98580806,13.9138934 C2.35580332,13.9138934 1.94056635,12.2528389 2.07897867,11.5607346 C2.217391,10.8686303 2.97872275,9.96888626 4.44079621,9.96888626 C6.12206872,9.96888626 7.62526066,10.3978578 9.43202133,11.2778744 C8.16468483,12.9294384 6.60459242,13.9138934 4.98582938,13.9138934 L4.98580806,13.9138934 Z" id="Shape"></path>
        </g>
    </g>
</svg>